<?xml version="1.0" standalone="no"?>
<!DOCTYPE svg PUBLIC "-//W3C//DTD SVG 20010904//EN"
 "http://www.w3.org/TR/2001/REC-SVG-20010904/DTD/svg10.dtd">
<svg version="1.0" xmlns="http://www.w3.org/2000/svg"
 width="512.000000pt" height="512.000000pt" viewBox="0 0 512.000000 512.000000"
 preserveAspectRatio="xMidYMid meet">
<metadata>
Created by potrace 1.11, written by Peter Selinger 2001-2013
</metadata>
<g transform="translate(0.000000,512.000000) scale(0.100000,-0.100000)"
fill="#000000" stroke="none">
<path d="M0 2560 l0 -2560 2560 0 2560 0 0 2560 0 2560 -2560 0 -2560 0 0
-2560z m3798 1621 c304 -88 550 -340 633 -646 20 -72 22 -106 23 -350 l1 -270
-275 0 -275 0 -6 240 c-6 260 -11 285 -68 368 -81 118 -244 169 -385 121 -69
-24 -156 -108 -192 -186 -26 -57 -29 -73 -28 -168 0 -84 5 -116 22 -161 53
-135 109 -179 478 -379 146 -79 289 -159 317 -178 204 -134 342 -310 394 -502
14 -51 18 -102 17 -235 0 -155 -3 -178 -27 -258 -96 -312 -333 -544 -642 -628
-112 -31 -335 -31 -446 -1 -335 91 -613 399 -668 743 -6 35 -11 137 -11 227
l0 162 278 -2 277 -3 6 -160 c6 -177 16 -216 74 -295 65 -89 152 -133 265
-134 61 0 86 5 132 26 69 32 139 103 176 178 23 47 27 67 27 145 0 167 -40
206 -447 434 -347 195 -420 242 -510 332 -182 182 -271 410 -271 694 0 201 31
321 125 479 49 83 170 212 255 272 87 63 221 123 322 145 117 26 323 21 429
-10z m-2440 -23 c9 -9 12 -145 12 -551 l0 -539 58 88 c537 818 647 982 664
997 18 15 47 17 289 17 152 0 270 -4 274 -9 3 -5 -175 -296 -394 -647 -386
-613 -400 -638 -387 -663 55 -108 876 -1860 876 -1869 0 -9 -79 -12 -303 -12
l-303 0 -279 608 c-153 334 -294 640 -313 680 l-33 73 -80 -124 -79 -124 0
-557 0 -556 -277 2 -278 3 3 1590 c3 1185 7 1592 15 1597 21 14 522 9 535 -4z"/>
</g>
</svg>
